<svg width="86" height="86" viewBox="0 0 86 86" fill="none" xmlns="http://www.w3.org/2000/svg">
<path d="M38 58C39.1046 58 40 57.1046 40 56C40 54.8954 39.1046 54 38 54C36.8954 54 36 54.8954 36 56C36 57.1046 36.8954 58 38 58Z" fill="white"/>
<path d="M53 58C54.1046 58 55 57.1046 55 56C55 54.8954 54.1046 54 53 54C51.8954 54 51 54.8954 51 56C51 57.1046 51.8954 58 53 58Z" fill="white"/>
<path d="M57.8704 33.4547H33.4166L32.5126 28.8729C32.461 28.6228 32.3225 28.3985 32.121 28.239C31.9196 28.0796 31.668 27.9951 31.4101 28.0002H27V30.182H30.506L34.7176 51.1271C34.7691 51.3772 34.9077 51.6015 35.1091 51.761C35.3106 51.9204 35.5622 52.0049 35.8201 51.9998H55.6654V49.818H36.7242L35.8201 45.4544H55.6654C55.9202 45.4606 56.1694 45.3792 56.3704 45.2241C56.5714 45.0689 56.7119 44.8496 56.7679 44.6036L58.9729 34.7856C59.0099 34.6237 59.009 34.4556 58.9704 34.2941C58.9318 34.1327 58.8565 33.982 58.7502 33.8537C58.6438 33.7253 58.5093 33.6227 58.3569 33.5536C58.2044 33.4844 58.0381 33.4506 57.8704 33.4547ZM54.7834 43.2727H35.4012L33.8576 35.6364H56.4923L54.7834 43.2727Z" fill="white"/>
</svg>
